<svg height="581pt" viewBox="0 -70 581.319 581" width="581pt" xmlns="http://www.w3.org/2000/svg"><path d="m513.214844 131.386719h-135.566406v-19.367188h116.203124c5.347657 0 9.683594-4.335937 9.683594-9.683593.007813-15.894532-11.363281-29.519532-27.007812-32.351563-57.488282-10.449219-115.785156-15.824219-174.214844-16.0625h-4.257812c-36.339844.226563-72.636719 2.441406-108.734376 6.632813l-7.332031-18.320313c-6.164062-15.484375-16.902343-28.722656-30.78125-37.949219-11.363281-7.582031-26.71875-4.519531-34.300781 6.84375-6.546875 9.8125-5.253906 22.882813 3.089844 31.21875 3.785156 3.765625 5.902344 8.886719 5.890625 14.226563v13.082031c-.679688.117188-1.367188.203125-2.042969.320312-15.632812 2.855469-26.996094 16.46875-27.007812 32.359376 0 5.347656 4.335937 9.683593 9.683593 9.683593h96.832031v19.367188h-113.054687c-28.441406.007812-53.835937 17.8125-63.542969 44.542969-.050781.082031-.09375.164062-.132812.253906-.167969.335937-.515625 1.199218-.632813 1.546875l-19.035156 57.132812-2.46875 7.417969c-2.980469 12.195312-4.484375 24.707031-4.484375 37.261719v99.738281c0 12.832031 10.40625 23.238281 23.242188 23.238281h45.511718c5.320313 26.207031 30.875 43.136719 57.082032 37.8125 19.050781-3.867187 33.941406-18.757812 37.8125-37.8125h224.652343c5.320313 26.207031 30.878907 43.136719 57.082031 37.8125 19.054688-3.867187 33.945313-18.757812 37.816407-37.8125h74.558593c12.835938 0 23.242188-10.40625 23.242188-23.238281v-180.109375c-.042969-37.417969-30.367188-67.742187-67.785156-67.785156zm-379.527344-102.71875c-2.109375-2.082031-2.136719-5.476563-.058594-7.589844 1.816406-1.84375 4.695313-2.128906 6.835938-.671875 10.617187 7.066406 18.828125 17.199219 23.542968 29.050781l5.371094 13.410157c-8.074218 1.085937-16.09375 2.449218-24.128906 3.738281v-10.03125c.027344-10.472657-4.136719-20.523438-11.5625-27.90625zm-6.390625 60.363281c57.050781-10.355469 114.90625-15.625 172.886719-15.746094 57.980468.121094 115.839844 5.394532 172.886718 15.757813 2.644532.480469 5.089844 1.738281 7.019532 3.609375h-359.804688c1.929688-1.875 4.367188-3.132813 7.011719-3.621094zm95.417969 22.988281h135.570312v19.367188h-135.570312zm-180.234375 77.46875h91.992187c.621094 0 1.121094.5 1.121094 1.121094v36.488281c0 .621094-.5 1.125-1.121094 1.125h-104.898437zm519.152343 145.828125-57.238281-.578125c-4.128906-11.566406-15.054687-19.308593-27.335937-19.367187h-82.617188c-14.429687.0625-26.648437 10.660156-28.75 24.933594l-6.121094 42.847656h-167.191406l-6.121094-42.847656c-2.101562-14.277344-14.320312-24.871094-28.75-24.933594h-82.617187c-12.351563.046875-23.34375 7.859375-27.441406 19.511718l-28.082031.398438v-48.960938h542.265624zm-542.265624 43.964844v-24.636719l24.777343-.347656-4.125 28.855469h-16.777343c-2.140626 0-3.875-1.734375-3.875-3.871094zm96.832031 42.605469c-16.042969 0-29.050781-13.003907-29.050781-29.050781 0-16.042969 13.007812-29.046876 29.050781-29.046876 16.046875 0 29.050781 13.003907 29.050781 29.046876 0 16.042968-13.007812 29.050781-29.050781 29.050781zm47.449219-38.734375c-5.320313-26.203125-30.878907-43.132813-57.082032-37.8125-19.054687 3.871094-33.945312 18.761718-37.8125 37.8125h-9.171875l5.734375-40.105469c.683594-4.765625 4.761719-8.304687 9.574219-8.308594h82.621094c4.8125.003907 8.890625 3.542969 9.574219 8.308594l5.734374 40.105469zm272.101562 38.734375c-16.042969 0-29.050781-13.003907-29.050781-29.050781 0-16.042969 13.007812-29.046876 29.050781-29.046876s29.050781 13.003907 29.050781 29.046876c0 16.042968-13.007812 29.050781-29.050781 29.050781zm47.449219-38.734375c-5.320313-26.203125-30.878907-43.132813-57.082031-37.8125-19.054688 3.871094-33.945313 18.761718-37.8125 37.8125h-9.183594l5.734375-40.105469c.683593-4.769531 4.769531-8.308594 9.585937-8.308594h82.621094c4.8125.003907 8.890625 3.542969 9.574219 8.308594l5.734375 40.105469zm74.558593 0h-45.828124l-4.144532-29 53.847656.53125v24.597656c0 2.136719-1.734374 3.871094-3.875 3.871094zm3.875-116.199219h-541.648437c.363281-6.257813 1.320313-12.464844 2.859375-18.542969l.28125-.824218h111.355469c11.296875-.03125 20.441406-9.191407 20.453125-20.488282v-36.488281c-.011719-11.3125-9.179688-20.480469-20.492188-20.488281h-82.867187c9.136719-12.203125 23.492187-19.378906 38.734375-19.367188h422.910156c26.726562.03125 48.382812 21.691406 48.414062 48.414063zm0 0"/><path d="m299.058594 170.121094h-104.269532c-11.3125.011718-20.476562 9.175781-20.488281 20.488281v36.488281c.011719 11.3125 9.175781 20.480469 20.488281 20.488282h104.269532c11.3125-.007813 20.480468-9.175782 20.492187-20.488282v-36.488281c-.011719-11.3125-9.179687-20.480469-20.492187-20.488281zm1.125 56.976562c0 .621094-.503906 1.125-1.125 1.125h-104.269532c-.621093 0-1.121093-.503906-1.121093-1.125v-36.488281c0-.621094.5-1.121094 1.121093-1.121094h104.269532c.621094 0 1.125.5 1.125 1.121094zm0 0"/><path d="m463.675781 170.121094h-104.269531c-11.3125.011718-20.480469 9.175781-20.488281 20.488281v36.488281c.011719 11.3125 9.175781 20.480469 20.488281 20.488282h104.269531c11.3125-.007813 20.480469-9.175782 20.492188-20.488282v-36.488281c-.011719-11.3125-9.179688-20.480469-20.492188-20.488281zm1.125 56.976562c0 .621094-.503906 1.125-1.125 1.125h-104.269531c-.621094 0-1.121094-.503906-1.121094-1.125v-36.488281c0-.621094.5-1.121094 1.121094-1.121094h104.269531c.621094 0 1.125.5 1.125 1.121094zm0 0"/><path d="m503.535156 189.488281h38.730469v19.367188h-38.730469zm0 0"/><path d="m503.535156 228.222656h38.730469v19.363282h-38.730469zm0 0"/></svg>