<?xml version="1.0" encoding="UTF-8"?>
<svg width="375px" height="812px" viewBox="0 0 375 812" version="1.1" xmlns="http://www.w3.org/2000/svg" xmlns:xlink="http://www.w3.org/1999/xlink">
    <!-- Generator: Sketch 63 (92445) - https://sketch.com -->
    <title>Welcome 01  Copy</title>
    <desc>Created with Sketch.</desc>
    <defs>
        <linearGradient x1="50%" y1="100%" x2="50%" y2="0%" id="linearGradient-1">
            <stop stop-color="#808080" stop-opacity="0.25" offset="0%"></stop>
            <stop stop-color="#808080" stop-opacity="0.12" offset="54%"></stop>
            <stop stop-color="#808080" stop-opacity="0.1" offset="100%"></stop>
        </linearGradient>
        <linearGradient x1="50.0035554%" y1="100%" x2="50.0035554%" y2="0%" id="linearGradient-2">
            <stop stop-color="#808080" stop-opacity="0.25" offset="0%"></stop>
            <stop stop-color="#808080" stop-opacity="0.12" offset="54%"></stop>
            <stop stop-color="#808080" stop-opacity="0.1" offset="100%"></stop>
        </linearGradient>
        <linearGradient x1="50%" y1="100.006361%" x2="50%" y2="-0.0033675577%" id="linearGradient-3">
            <stop stop-color="#808080" stop-opacity="0.25" offset="0%"></stop>
            <stop stop-color="#808080" stop-opacity="0.12" offset="54%"></stop>
            <stop stop-color="#808080" stop-opacity="0.1" offset="100%"></stop>
        </linearGradient>
        <linearGradient x1="50%" y1="99.9984025%" x2="50%" y2="0.000798766704%" id="linearGradient-4">
            <stop stop-color="#808080" stop-opacity="0.25" offset="0%"></stop>
            <stop stop-color="#808080" stop-opacity="0.12" offset="54%"></stop>
            <stop stop-color="#808080" stop-opacity="0.1" offset="100%"></stop>
        </linearGradient>
        <linearGradient x1="50.0046292%" y1="100%" x2="50.0046292%" y2="0%" id="linearGradient-5">
            <stop stop-color="#808080" stop-opacity="0.25" offset="0%"></stop>
            <stop stop-color="#808080" stop-opacity="0.12" offset="54%"></stop>
            <stop stop-color="#808080" stop-opacity="0.1" offset="100%"></stop>
        </linearGradient>
        <linearGradient x1="50.005576%" y1="100%" x2="50.005576%" y2="0%" id="linearGradient-6">
            <stop stop-color="#808080" stop-opacity="0.25" offset="0%"></stop>
            <stop stop-color="#808080" stop-opacity="0.12" offset="54%"></stop>
            <stop stop-color="#808080" stop-opacity="0.1" offset="100%"></stop>
        </linearGradient>
        <linearGradient x1="49.9853501%" y1="100%" x2="49.9853501%" y2="0.00776036008%" id="linearGradient-7">
            <stop stop-color="#808080" stop-opacity="0.25" offset="0%"></stop>
            <stop stop-color="#808080" stop-opacity="0.12" offset="54%"></stop>
            <stop stop-color="#808080" stop-opacity="0.1" offset="100%"></stop>
        </linearGradient>
        <linearGradient x1="50.0067815%" y1="100%" x2="50.0067815%" y2="-0.0245639892%" id="linearGradient-8">
            <stop stop-color="#808080" stop-opacity="0.25" offset="0%"></stop>
            <stop stop-color="#808080" stop-opacity="0.12" offset="54%"></stop>
            <stop stop-color="#808080" stop-opacity="0.1" offset="100%"></stop>
        </linearGradient>
        <linearGradient x1="50%" y1="100%" x2="50%" y2="0%" id="linearGradient-9">
            <stop stop-color="#808080" stop-opacity="0.25" offset="0%"></stop>
            <stop stop-color="#808080" stop-opacity="0.12" offset="54%"></stop>
            <stop stop-color="#808080" stop-opacity="0.1" offset="100%"></stop>
        </linearGradient>
        <linearGradient x1="50%" y1="99.9649615%" x2="50%" y2="0%" id="linearGradient-10">
            <stop stop-color="#808080" stop-opacity="0.25" offset="0%"></stop>
            <stop stop-color="#808080" stop-opacity="0.12" offset="54%"></stop>
            <stop stop-color="#808080" stop-opacity="0.1" offset="100%"></stop>
        </linearGradient>
        <linearGradient x1="50%" y1="99.9649615%" x2="50%" y2="0%" id="linearGradient-11">
            <stop stop-color="#808080" stop-opacity="0.25" offset="0%"></stop>
            <stop stop-color="#808080" stop-opacity="0.12" offset="54%"></stop>
            <stop stop-color="#808080" stop-opacity="0.1" offset="100%"></stop>
        </linearGradient>
        <linearGradient x1="49.9985663%" y1="99.9895513%" x2="49.9985663%" y2="0.0329517205%" id="linearGradient-12">
            <stop stop-color="#808080" stop-opacity="0.25" offset="0%"></stop>
            <stop stop-color="#808080" stop-opacity="0.12" offset="54%"></stop>
            <stop stop-color="#808080" stop-opacity="0.1" offset="100%"></stop>
        </linearGradient>
    </defs>
    <g id="Welcome-01--Copy" stroke="none" stroke-width="1" fill="none" fill-rule="evenodd">
        <g id="BG3" fill="#004FC4" fill-rule="nonzero">
            <rect id="Rectangle" transform="translate(187.500000, 406.000000) scale(1, -1) translate(-187.500000, -406.000000) " x="0" y="0" width="375" height="812"></rect>
        </g>
        <text id="Welcome-to-MENSANA" font-family="Helvetica" font-size="32" font-weight="normal" line-spacing="44" letter-spacing="-0.0199999996" fill="#FAFAFA">
            <tspan x="23.5" y="411">Welcome to </tspan>
            <tspan x="23.5" y="455">MENSANA </tspan>
        </text>
        <text id="Nunc-vel-rhoncus-nib" font-family="Roboto-Bold, Roboto" font-size="18" font-weight="bold" letter-spacing="1.28571429" fill="#FAFAFC">
            <tspan x="23" y="502">Nunc vel rhoncus nibh, ut tincidunt</tspan>
        </text>
        <text id="Donec-facilisis-tort" font-family="Roboto-Regular, Roboto" font-size="18" font-weight="normal" letter-spacing="1.28571429" fill="#FAFAFC">
            <tspan x="23" y="548">Donec facilisis tortor ut augue </tspan>
            <tspan x="23" y="569">lacinia, at viverra est semper. Sed </tspan>
            <tspan x="23" y="590">sapien metus, scelerisque nec </tspan>
            <tspan x="23" y="611">pharetra id, tempor a tortor. </tspan>
            <tspan x="23" y="632">Pellentesque non dignissim neque. </tspan>
            <tspan x="23" y="653">Ut porta viverra est, ut dignissim.</tspan>
        </text>
        <path d="M-22,0 L399,0 L399,379 C333.666667,332.333333 263,309 187,309 C111,309 30.6666667,278.333333 -54,217 L-22,0 Z" id="Rectangle" fill-opacity="0.736205201" fill="#FFFFFF"></path>
        <g id="undraw_basketball_agx4" transform="translate(-23.000000, 0.000000)">
            <path d="M110.296454,298 C110.296454,298 120.061542,307.63326 114.549608,321.927927 C109.037673,336.222593 124,360 124,360 L123.523189,359.92474 C103.463754,356.434565 93.4841014,333.800167 104.651013,316.988999 C108.837413,310.742432 112.237075,303.409301 110.296454,298 Z" id="Path" fill="#6C63FF" fill-rule="nonzero"></path>
            <path d="M110.266989,298 C110.266989,298 115.790775,309.811092 110.266989,319.444352 C104.743204,329.077612 109.311317,356.133526 124,360" id="Path" stroke="#535461" stroke-width="0.5"></path>
            <path d="M93,337.120583 C93,337.120583 103.948467,335.366031 104.946337,345.242461 C105.944208,355.11889 126,356.491402 126,356.491402 L125.625213,356.741379 C109.06431,367.688462 93.2342419,363.712421 95.6422487,349.194919 C96.4855196,343.780334 96.4339864,338.3516 93,337.120583 Z" id="Path" fill="#6C63FF" fill-rule="nonzero"></path>
            <path d="M93,337.120583 C93,337.120583 103.948467,335.366031 104.946337,345.242461 C105.944208,355.11889 126,356.491402 126,356.491402 L125.625213,356.741379 C109.06431,367.688462 93.2342419,363.712421 95.6422487,349.194919 C96.4855196,343.780334 96.4339864,338.3516 93,337.120583 Z" id="Path" fill="#F5F5F5" fill-rule="nonzero" opacity="0.2"></path>
            <path d="M93,337 C93,337 101.498296,338.880608 100.800256,346.628712 C100.102215,354.376816 113.42121,363.681123 126,356.313842" id="Path" stroke="#535461" stroke-width="0.5"></path>
            <path d="M415.651013,170.882112 C421.016126,181.907859 417.601963,197.725982 425.199414,206.738087 C430.770878,213.346965 440.019133,213.309414 446.336273,218.885655 C451.251167,223.236812 453.699234,230.357314 455.926882,237.116393 L466.750904,269.973027 C471.679868,284.936877 475.891294,304.200253 465.963021,315.169675 C460.011684,321.741002 451.021367,322.487317 442.893971,321.78794 C384.070004,316.723324 336.754769,257.346692 278.132463,249.681709 C236.698217,244.260364 195.761089,265.589014 154.087664,264.410868 C132.045677,263.786592 110.524256,256.900781 89.2560836,250.02905 C72.8981154,244.757907 54.7439597,237.825157 46.9448481,220.054412 C43.4603383,212.112494 42.3769981,202.518357 37.199476,195.989274 C33.2319184,190.980984 27.496312,188.610613 22.5673485,184.982302 C1.09751523,169.159485 -1.36462161,133.768196 0.506602389,103.967229 C1.54304475,87.4356478 3.29702414,70.5097873 9.8298939,55.8369531 C16.3627637,41.164119 28.6546887,29.0306332 42.6865238,28.5518651 C51.5595961,28.2467678 60.0387264,32.4805799 68.6726196,34.8462575 C77.3065128,37.2119352 87.4317574,37.2823423 93.9130395,30.1524526 C99.2312551,24.2992779 100.900818,14.8975866 106.219034,9.03033049 C110.360114,4.47264591 116.137928,2.70308146 121.723461,1.61881252 C151.761531,-4.21089319 183.75993,5.90895022 207.316718,28.6832917 C213.042944,34.2172877 218.497164,40.6008624 225.494322,43.4406143 C234.812924,47.2191273 244.999136,44.0179524 254.852373,44.097747 C289.613055,44.3793753 313.188602,82.0330784 337.688036,105.76965 C352.010638,119.649231 365.864261,122.639185 381.406207,131.88598 C391.024955,137.612422 409.849749,158.964541 415.651013,170.882112 Z" id="Path" fill="#6C63FF" fill-rule="nonzero" opacity="0.1"></path>
            <rect id="Rectangle" fill="url(#linearGradient-1)" fill-rule="nonzero" x="122" y="168" width="21" height="192"></rect>
            <polygon id="Path" fill="url(#linearGradient-2)" fill-rule="nonzero" points="166 369 100 369 123.437673 354 141.130911 354"></polygon>
            <path d="M29,69.0013021 C29,69.0013021 117.872587,-18.7516277 233,69.0013021 L233,144.831966 C233,144.831966 142.706839,199.210042 29.0046884,144.831966 L29,69.0013021 Z" id="Path" fill="url(#linearGradient-3)" fill-rule="nonzero"></path>
            <path d="M36,70.7573906 C36,70.7573906 119.199338,-11.9467382 227,70.7573906 L227,142.22649 C227,142.22649 142.460476,193.466887 36,142.22649 L36,70.7573906 Z" id="Path" fill="url(#linearGradient-4)" fill-rule="nonzero"></path>
            <rect id="Rectangle" fill="url(#linearGradient-5)" fill-rule="nonzero" x="105" y="113" width="51" height="43"></rect>
            <rect id="Rectangle" fill="url(#linearGradient-6)" fill-rule="nonzero" x="110" y="117" width="42" height="36"></rect>
            <g id="Group" opacity="0.1" transform="translate(92.000000, 161.000000)" fill="url(#linearGradient-7)" fill-rule="nonzero">
                <path d="M56.2808721,60.5776923 L40.2362791,33.0338462 L26.0047674,59.6110769 L13.6569767,31.7575385 L0.81,60.1178462 L0.362616279,59.9395385 C5.54284884,44.8678462 0.405,2.14438462 0.362616279,1.71269231 L0.164825581,0.112615385 L13.6711047,30.5797692 L24.9310465,5.71053846 L40.250407,32.0203077 L54.2605814,5.81846154 L66.1280233,32.8039231 L77.6469767,1.94261538 L80.5290698,1.37015385 L80.4631395,1.71738462 C80.3783721,2.15846154 72.5091279,43.4789231 76.9829651,57.4901538 L78.0472674,59.9113846 L77.6234302,60.1319231 C77.1631794,59.3498785 76.7964925,58.5167866 76.5308721,57.6496923 L66.170407,34.0802308 L56.2808721,60.5776923 Z M40.5,32.5223846 L56.1819767,59.4609231 L65.8878488,33.4608462 L54.2181977,6.92584615 L40.5,32.5223846 Z M13.9018605,31.1569231 L26.0047674,58.5177692 L39.9348837,32.5317692 L24.954593,6.75692308 L13.9018605,31.1569231 Z M0.988953488,3.20953846 C1.80837209,10.5670769 4.99656977,41.9539231 1.6247093,57.1006923 L13.3979651,31.1569231 L0.988953488,3.20953846 Z M66.4105814,33.4514615 L75.8621512,54.9422308 C72.9894767,39.6453077 79.1586628,6.09061538 79.9309884,1.98953846 L78.0143023,2.36961538 L66.4105814,33.4514615 Z" id="Shape"></path>
            </g>
            <g id="Group" opacity="0.1" transform="translate(95.000000, 164.000000)" fill="url(#linearGradient-8)" fill-rule="nonzero">
                <path d="M12.0004054,57.1720968 L0.214459459,27.5687097 L0.657364865,27.3909677 L12.0237162,55.9232258 L23.4133784,29.8466129 L8.22871622,1.85693548 L8.64364865,1.62774194 L23.6511486,29.2946774 L35.0314865,3.25080645 L35.1713514,3.25080645 L68.9627027,0.0467741935 L37.6609459,56.0962903 L23.7070946,30.3704839 L12.0004054,57.1720968 Z M23.949527,29.8232258 L37.6656081,55.1093548 L68.1141892,0.594032258 L35.3671622,3.69983871 L23.949527,29.8232258 Z" id="Shape"></path>
            </g>
            <g id="Group" opacity="0.1" transform="translate(129.000000, 165.000000)" fill="url(#linearGradient-9)" fill-rule="nonzero">
                <polygon id="Path" points="28.2976744 55.1086667 28.055814 54.642 0.0930232558 0.429333333 0.51627907 0.21 28.2372093 53.9513333 38.655814 26.866 39.0976744 27.0386667"></polygon>
            </g>
            <path d="M131.5,156 C109.129373,156 91,158.910652 91,162.5 C91,166.089348 109.134049,169 131.5,169 C153.865951,169 172,166.089348 172,162.5 C172,158.910652 153.865951,156 131.5,156 Z M131.5,166.212334 C110.97177,166.212334 94.3340838,164.340224 94.3340838,162.035389 C94.3340838,159.730554 110.97177,157.862999 131.5,157.862999 C152.02823,157.862999 168.66124,159.725999 168.66124,162.035389 C168.66124,164.344779 152.023554,166.212334 131.5,166.212334 L131.5,166.212334 Z" id="Shape" fill="url(#linearGradient-10)" fill-rule="nonzero"></path>
            <g id="Group" opacity="0.2" transform="translate(91.000000, 155.000000)" fill="url(#linearGradient-11)" fill-rule="nonzero">
                <path d="M40.8821839,0.144666667 C18.3368966,0.144666667 0.0659770115,3.12666667 0.0659770115,6.804 C0.0659770115,10.4813333 18.3416092,13.4633333 40.8821839,13.4633333 C63.4227586,13.4633333 81.6983908,10.4813333 81.6983908,6.804 C81.6983908,3.12666667 63.4227586,0.144666667 40.8821839,0.144666667 Z M40.8821839,10.6073333 C20.1936782,10.6073333 3.42609195,8.68933333 3.42609195,6.328 C3.42609195,3.96666667 20.1936782,2.05333333 40.8821839,2.05333333 C61.5706897,2.05333333 78.3335632,3.962 78.3335632,6.328 C78.3335632,8.694 61.565977,10.6073333 40.8821839,10.6073333 L40.8821839,10.6073333 Z" id="Shape"></path>
            </g>
            <path d="M131.5,154 C109.129373,154 91,156.910652 91,160.5 C91,164.089348 109.134049,167 131.5,167 C153.865951,167 172,164.089348 172,160.5 C172,156.910652 153.865951,154 131.5,154 Z M131.5,164.212334 C110.97177,164.212334 94.3340838,162.340224 94.3340838,160.035389 C94.3340838,157.730554 110.976446,155.858444 131.5,155.858444 C152.023554,155.858444 168.66124,157.707779 168.66124,160.030834 C168.66124,162.353889 152.023554,164.207779 131.5,164.207779 L131.5,164.212334 Z" id="Shape" fill="url(#linearGradient-10)" fill-rule="nonzero"></path>
            <rect id="Rectangle" fill="#E8EAF1" fill-rule="nonzero" x="122" y="168" width="21" height="189"></rect>
            <polygon id="Path" fill="#E8EAF1" fill-rule="nonzero" points="165 366 100 366 123.07971 351 140.507246 351"></polygon>
            <path d="M31,71.4414792 C31,71.4414792 118.119438,-15.051849 231,71.4414792 L231,146.182997 C231,146.182997 142.47541,199.771254 31,146.182997 L31,71.4414792 Z" id="Path" fill="#E8EAF1" fill-rule="nonzero"></path>
            <path d="M37,72.9177241 C37,72.9177241 118.8928,-7.89715518 225,72.9177241 L225,142.747556 C225,142.747556 141.81,192.815555 37,142.747556 L37,72.9177241 Z" id="Path" fill="#F3F5F7" fill-rule="nonzero"></path>
            <rect id="Rectangle" fill="#FFFFFF" fill-rule="nonzero" x="106" y="115" width="50" height="42"></rect>
            <rect id="Rectangle" fill="#F3F5F7" fill-rule="nonzero" x="110" y="118" width="41" height="35"></rect>
            <path d="M148.140623,221 L132.372687,194.108018 L118.363555,220.052902 L106.231109,192.876325 L93.6318491,220.552111 L93.193327,220.379488 C98.3047034,205.669144 93.2357646,163.98284 93.193327,163.562945 L93,162 L106.273547,191.72861 L117.340337,167.467974 L132.391548,193.128262 L146.193208,167.561284 L157.854124,193.893405 L169.170825,163.777558 L172,163.217697 L171.933986,163.558279 C171.849111,163.992171 164.116032,204.306816 168.515399,217.981417 L169.562194,220.342164 L169.142533,220.556777 C168.689808,219.793967 168.328985,218.981292 168.067447,218.135379 L157.882416,195.13443 L148.140623,221 Z M132.636743,193.622806 L148.046317,219.908271 L157.580637,194.54191 L146.117763,168.648347 L132.636743,193.622806 Z M106.495165,192.307133 L118.405993,218.993832 L132.080339,193.636802 L117.345052,168.499051 L106.495165,192.307133 Z M93.8063149,165.037245 C94.6126298,172.212795 97.7435836,202.827851 94.4287334,217.622173 L105.976483,192.307133 L93.8063149,165.037245 Z M158.089889,194.527914 L167.374299,215.490036 C164.545124,200.560414 170.608989,167.822553 171.372866,163.824213 L169.486749,164.197454 L158.089889,194.527914 Z" id="Shape" fill="#000000" fill-rule="nonzero" opacity="0.1"></path>
            <path d="M107.65513,221 L96,191.98874 L96.4368912,191.815915 L107.678618,219.790224 L118.95323,194.221453 L103.920415,166.793644 L104.333817,166.569439 L119.174024,193.660939 L130.448636,168.138877 L130.58487,168.138877 L164,165 L133.027703,219.944366 L119.230397,194.721244 L107.65513,221 Z M119.469983,194.198098 L133.032401,218.977479 L163.145009,165.551172 L130.763385,168.591959 L119.469983,194.198098 Z" id="Shape" fill="#000000" fill-rule="nonzero" opacity="0.1"></path>
            <polygon id="Path" fill="#000000" fill-rule="nonzero" opacity="0.1" points="157.205103 220 156.958688 219.536942 129 166.215158 129.42175 166 157.138761 218.858727 167.559295 192.216544 168 192.384929"></polygon>
            <path d="M132,156 C109.910588,156 92,158.911071 92,162.5 C92,166.088929 109.910588,169 132,169 C154.089412,169 172,166.088929 172,162.5 C172,158.911071 154.089412,156 132,156 Z M132,166.214286 C111.727059,166.214286 95.2941176,164.357143 95.2941176,162.035714 C95.2941176,159.714286 111.727059,157.857143 132,157.857143 C152.272941,157.857143 168.705882,159.714286 168.705882,162.035714 C168.705882,164.357143 152.272941,166.214286 132,166.214286 Z" id="Shape" fill="#5F546F" fill-rule="nonzero"></path>
            <path d="M132,156 C109.910588,156 92,158.911071 92,162.5 C92,166.088929 109.910588,169 132,169 C154.089412,169 172,166.088929 172,162.5 C172,158.911071 154.089412,156 132,156 Z M132,166.214286 C111.727059,166.214286 95.2941176,164.357143 95.2941176,162.035714 C95.2941176,159.714286 111.727059,157.857143 132,157.857143 C152.272941,157.857143 168.705882,159.714286 168.705882,162.035714 C168.705882,164.357143 152.272941,166.214286 132,166.214286 Z" id="Shape" fill="#000000" fill-rule="nonzero" opacity="0.2"></path>
            <path d="M132,155 C109.910588,155 92,157.911071 92,161.5 C92,165.088929 109.910588,168 132,168 C154.089412,168 172,165.088929 172,161.5 C172,157.911071 154.089412,155 132,155 Z M132,165.214286 C111.727059,165.214286 95.2941176,163.357143 95.2941176,161.035714 C95.2941176,158.714286 111.727059,156.857143 132,156.857143 C152.272941,156.857143 168.705882,158.714286 168.705882,161.035714 C168.705882,163.357143 152.272941,165.214286 132,165.214286 Z" id="Shape" fill="#5F546F" fill-rule="nonzero"></path>
            <path d="M277.871265,345.972008 C265.205515,349.601866 251.249346,345.890921 238.775289,350.155169 C237.676829,350.472071 236.650452,351.00697 235.754959,351.72922 C232.772033,354.386028 233.950242,359.570857 236.615239,362.556785 C240.874559,367.326637 247.56978,368.814831 253.858238,369.453991 C284.575837,372.568705 315.298111,361.235536 346.053113,363.620462 C350.625687,363.978201 355.955681,364.364559 359.022766,360.887337 C361.285675,358.325926 361.439965,354.376488 360.322536,351.123449 C358.270021,345.151594 352.59872,341.07337 346.628191,339.360993 C340.657662,337.648616 334.331801,337.930037 328.132176,338.211458 C319.716395,338.602586 311.230483,338.49288 302.83808,339.060492 C293.865923,339.690113 286.371203,343.553693 277.871265,345.972008 Z" id="Path" fill="#6C63FF" fill-rule="nonzero" opacity="0.1"></path>
            <path d="M351.47931,275.819545 C348.192082,275.351034 342.115405,270.197411 342.115405,270.197411 C341.21947,268.861147 339.691627,268.085694 338.081507,268.150018 L332.047095,259.684021 C329.707903,255.673753 326.933026,251.932774 323.772672,248.528771 C323.256108,247.957188 322.722324,247.402783 322.171322,246.865557 C320.543703,245.251166 318.794816,243.763216 316.939933,242.414701 C315.719508,241.506851 314.567454,240.510937 313.49304,239.43497 C312.499729,238.44808 311.559218,237.40967 310.675416,236.324056 L306.477156,230.458297 L306.195393,230.060062 C306.302588,229.487192 306.331026,228.902419 306.279922,228.321886 C306.279922,228.186018 306.251746,228.050149 306.232962,227.914281 L288.904573,207.590268 L283.738929,197.076878 L283.738929,197.076878 L283.738929,197.076878 C283.67788,197.128414 283.471254,197.301763 283.147227,197.545389 L283.053307,197.278338 L283.053307,197.156525 L283.053307,196.271039 C283.027055,188.993869 284.837436,181.827199 288.317568,175.431663 C289.486361,173.28465 290.098202,170.880026 290.097367,168.436792 C290.097367,168.240017 290.097367,168.043243 290.097367,167.846468 L290.008142,167.748081 C289.843781,167.565361 289.468098,167.143701 288.984406,166.520581 C289.045454,166.398769 289.111199,166.272271 289.172247,166.155143 C291.323034,162.210279 294.314411,161.535623 294.314411,161.535623 C304.382722,160.130089 311.6428,153.360104 311.6428,153.360104 C319.156464,149.143503 317.747652,145.395414 317.747652,145.395414 L310.957178,129.044375 L306.730742,120.400345 L305.561428,116.42737 C305.178421,113.784765 304.637411,111.167366 303.941294,108.589179 C302.941037,104.784869 297.958539,103.702608 295.554166,106.818207 C295.497813,106.893169 295.436765,106.972816 295.380412,107.057148 C293.174504,110.237766 293.756276,114.570608 296.72348,117.05986 C299.0715,119.055718 301.114278,121.103112 301.114278,121.103112 C305.340714,122.269704 308.158338,143.994566 308.158338,143.994566 L305.340714,145.86861 C300.972228,146.094677 296.897593,148.133199 294.103089,151.490744 L285.265142,151.490744 C285.265142,151.453263 285.288622,151.415782 285.30271,151.373616 L283.837545,151.045658 L279.611109,150.108636 L278.047328,149.757253 L278.023848,149.85564 L277.58242,149.757253 L277.58242,149.818159 C276.988876,148.879878 276.455588,147.904979 275.985766,146.899335 C276.111843,146.918346 276.240068,146.918346 276.366145,146.899335 C276.399018,146.829058 276.427194,146.758782 276.450674,146.688505 L276.600947,146.688505 C277.253697,145.282971 276.690172,143.526055 277.319441,142.092411 C277.659189,141.487592 278.03557,140.903994 278.446491,140.344864 C279.385699,138.728501 279.272994,136.704533 278.995928,134.849228 C278.695381,132.853371 278.235169,130.815348 277.084639,129.152133 C275.93411,127.488918 273.947685,126.270789 271.918995,126.533156 C270.322341,126.743986 268.922921,127.835617 267.316876,127.938689 C266.180434,128.004281 265.090953,127.559195 264.029647,127.212497 C262.867537,126.839056 261.674885,126.567845 260.465353,126.401973 C259.66233,126.28953 258.718426,126.275475 258.178381,126.870484 L258.131421,126.93139 C258.063546,126.983227 258.00066,127.041261 257.943579,127.104739 C257.73155,127.368853 257.572148,127.671012 257.473975,127.99491 L256.43615,130.848143 C256.327534,131.045049 256.327534,131.283728 256.43615,131.480633 C256.530071,131.597761 256.694433,131.630557 256.821226,131.710204 C257.643033,132.239621 256.539463,133.546767 257.220389,134.188628 C257.628945,134.572807 258.502408,134.614973 259.366479,134.610288 C257.771134,137.118579 257.50215,140.245473 258.645783,142.988282 C259.789416,145.731091 262.201938,147.745112 265.109737,148.384515 C265.109737,148.539124 265.109737,148.693733 265.109737,148.853026 C265.132141,150.08858 265.034635,151.323397 264.818582,152.540209 L264.818582,152.540209 L264.13296,152.601115 C262.991823,152.662022 260.686067,152.751039 258.671465,152.657337 C257.99688,152.63064 257.324306,152.566511 256.656864,152.465247 C256.656864,152.465247 256.577032,153.317938 256.422062,154.625084 L255.952458,154.756267 C251.572974,156.011714 247.769766,158.752267 245.198526,162.505441 L234.660611,168.596086 C234.660611,168.596086 229.964571,167.429493 216.397711,179.109476 L206.564202,184.263098 C206.564202,184.263098 191.54157,188.676473 194.349802,193.108589 C197.158034,197.540704 211.208586,187.739451 211.208586,187.739451 L216.843835,185.17201 L233.937421,177.675832 C233.937421,177.675832 239.57267,173.927743 243.77093,172.522209 C247.96919,171.116676 252.200322,166.900075 252.200322,166.900075 L253.256931,166.843854 L253.726535,166.815743 C253.65655,166.94164 253.579734,167.063634 253.496429,167.181182 C253.454165,167.246774 253.407204,167.30768 253.360244,167.363901 L253.360244,204.971291 L253.285107,206.01607 L253.31798,206.01607 L253.31798,206.01607 L252.19093,221.312959 C252.19093,221.312959 252.425732,228.340626 251.486524,232.290175 C250.547316,236.239724 252.19093,252.379933 252.19093,252.379933 C252.19093,252.379933 252.806111,252.379933 253.806368,252.309656 L253.778191,252.778167 L253.36494,259.388859 C253.36494,259.388859 252.576005,261.93756 257.121772,263.263446 C258.162834,263.56443 259.153485,264.017553 260.061493,264.608073 L265.302274,268.03289 L270.688633,271.312468 L271.778114,273.594117 L271.82977,273.70656 L270.683937,273.008478 C270.683937,273.008478 269.744728,275.351034 272.792459,278.382301 C275.105775,280.447188 276.321353,283.470397 276.079687,286.55782 C276.079687,286.55782 276.549291,292.179954 279.366915,290.774421 C279.366915,290.774421 283.814065,289.837398 283.593351,282.13039 C283.593351,282.13039 281.818248,275.711787 283.884506,272.999108 C283.940858,272.924146 284.000341,272.852308 284.062955,272.783593 C286.410975,270.216152 283.358549,266.224437 283.358549,266.224437 C283.358549,266.224437 277.934623,264.041175 277.62938,267.667451 L277.40397,267.569064 C276.427194,267.100553 274.675571,265.962071 272.820635,263.188485 C272.820635,263.188485 269.777601,255.481476 265.095649,254.77871 L265.879887,250.341909 L265.969112,249.831232 C267.579854,249.072244 268.885353,248.093056 269.542799,246.832761 L269.542799,246.832761 L269.570975,246.77654 L269.570975,246.753114 L269.570975,246.720318 L269.570975,246.687522 L269.570975,246.654727 L269.594455,246.607875 L269.594455,246.570395 L269.617935,246.518858 L269.646112,246.462637 L269.646112,246.415786 L269.678984,246.350194 L269.768209,246.303343 L269.801081,246.233067 L269.829257,246.17216 L269.866826,246.092513 L269.899698,246.026922 L269.937266,245.947275 L269.97953,245.862943 L270.012403,245.797351 L270.059363,245.698964 L270.092235,245.633372 L270.294165,245.197657 L270.322341,245.141436 L270.378694,245.019623 L270.420958,244.930606 L270.482007,244.794737 L270.519575,244.71509 L270.590016,244.555797 L270.618192,244.490205 L270.693329,244.326226 L270.730897,244.246579 L270.806034,244.077915 L270.838906,244.002954 L270.918739,243.824919 L270.951611,243.754643 L271.03614,243.567238 L271.064316,243.496962 L271.148845,243.300187 L271.177021,243.234595 L271.270942,243.023765 L271.270942,242.986284 C272.768978,239.509932 274.652091,234.510918 274.55817,231.549927 C274.570452,231.314269 274.570452,231.078134 274.55817,230.842476 L274.501817,230.842476 L274.501817,230.795625 C274.501817,230.697237 274.464249,230.603535 274.436073,230.514518 L287.077813,233.325585 L294.591478,241.501104 L294.62435,241.501104 L294.62435,241.501104 L294.62435,241.501104 L294.62435,241.501104 L294.652526,241.501104 L294.685398,241.501104 L294.722967,241.501104 L294.760535,241.501104 L294.807496,241.477679 L294.84976,241.477679 L294.910808,241.449568 L294.957769,241.426142 L295.023513,241.393347 L295.079866,241.365236 L295.159699,241.32307 L295.211355,241.294959 L295.30058,241.248108 L295.356932,241.215312 L295.450853,241.168461 L295.516598,241.13098 L295.61991,241.074759 L295.685655,241.041963 L295.793664,240.981057 L295.868801,240.938891 L295.986202,240.873299 L296.066034,240.68121 L296.197523,240.606248 L296.267964,240.568767 L296.404149,240.493805 L296.483982,240.446954 L296.624863,240.367307 L296.7,240.320456 L296.850273,240.231439 L296.930106,240.184588 L297.085075,240.090886 L297.160212,240.044034 L297.324573,239.945647 L297.352749,239.945647 L297.615728,240.250179 L300.902956,244.05449 C304.190184,245.460023 311.675672,252.464265 311.675672,252.464265 C312.539744,254.530399 316.197959,257.482019 318.066983,258.896923 C318.601356,259.29115 319.168508,259.639113 319.762254,259.937017 C320.78599,260.466435 322.227675,261.72673 323.547262,263.00108 C325.269183,264.698992 327.11682,266.265124 329.074502,267.686192 C330.884953,269.063357 332.495361,270.684208 333.859767,272.502486 L333.859767,272.502486 L334.019432,272.708631 C332.901774,276.45672 339.297781,280.265716 339.297781,280.265716 C341.645801,279.797205 348.896488,286.356361 348.896488,286.356361 C348.896488,286.356361 355.686962,291.730183 358.495194,285.887849 C361.303426,280.045515 351.47931,275.819545 351.47931,275.819545 Z M339.072371,269.560236 L338.133163,268.23435 L338.133163,268.23435 C338.651965,268.478115 339.003552,268.976669 339.058283,269.546181 L339.072371,269.560236 Z" id="Shape" fill="url(#linearGradient-12)" fill-rule="nonzero"></path>
            <path d="M280,154.603982 C280,154.603982 256.723264,168.433835 261.696965,160.594252 C263.848089,157.292366 264.973587,153.405927 264.926641,149.441904 C264.92574,148.147737 264.755052,146.859511 264.41912,145.611519 L274.135831,141 C273.967524,142.357442 274.087105,143.735921 274.486482,145.042138 C275.84756,149.945406 280,154.603982 280,154.603982 Z" id="Path" fill="#DB8B8B" fill-rule="nonzero"></path>
            <path d="M275,145.20799 C273.119632,148.798617 269.267042,150.656896 265.504125,149.788282 C265.50323,148.441014 265.333684,147.099932 265,145.800734 L274.651696,141 C274.484515,142.413139 274.603296,143.848178 275,145.20799 L275,145.20799 Z" id="Path" fill="#000000" fill-rule="nonzero" opacity="0.1"></path>
            <circle id="Oval" fill="#DB8B8B" fill-rule="nonzero" cx="267" cy="140" r="9"></circle>
            <path d="M260.752781,135.937487 C261.611132,136.114563 262.368824,136.617787 262.86858,137.342702 C263.454494,138.279511 263.440544,139.56294 264.263613,140.293652 C264.884685,140.75607 265.661098,140.954533 266.425913,140.84637 C267.181787,140.735657 267.947451,140.708954 268.709117,140.766741 C269.941395,140.968155 270.950469,141.886228 271.634035,142.935455 C272.255599,144.023499 272.808506,145.149901 273.289474,146.307969 C273.4861,146.767337 273.766906,147.185264 274.117193,147.539874 C274.476062,147.896438 274.981853,148.05989 275.479675,147.980175 C276.116739,146.57496 275.568027,144.869967 276.177191,143.469436 C276.506589,142.876183 276.871522,142.303671 277.269966,141.755075 C278.199988,140.167183 278.074435,138.181146 277.800079,136.359052 C277.507122,134.396436 277.060712,132.396347 275.940035,130.766299 C274.819359,129.13625 272.889564,127.95587 270.936519,128.194756 C269.383382,128.400854 268.020901,129.473501 266.458464,129.567182 C265.356388,129.632759 264.291514,129.197142 263.240589,128.855207 C262.111079,128.488507 260.951881,128.222061 259.776258,128.058919 C258.99504,127.951186 258.078969,127.93245 257.553506,128.527324 C257.344671,128.785144 257.186821,129.080889 257.088495,129.398557 L256.079422,132.208985 C255.973526,132.402947 255.973526,132.638002 256.079422,132.831964 C256.172424,132.944381 256.330528,132.977169 256.451431,133.061482 C257.251249,133.581411 256.177074,134.86484 256.83739,135.497187 C257.497705,136.129533 259.827409,135.717337 260.752781,135.937487 Z" id="Path" fill="#000000" fill-rule="nonzero" opacity="0.1"></path>
            <path d="M261.752781,134.937487 C262.611132,135.114563 263.368824,135.617787 263.86858,136.342702 C264.454494,137.279511 264.440544,138.56294 265.263613,139.293652 C265.884685,139.75607 266.661098,139.954533 267.425913,139.84637 C268.181787,139.735657 268.947451,139.708954 269.709117,139.766741 C270.941395,139.968155 271.950469,140.886228 272.634035,141.935455 C273.255599,143.023499 273.808506,144.149901 274.289474,145.307969 C274.4861,145.767337 274.766906,146.185264 275.117193,146.539874 C275.476062,146.896438 275.981853,147.05989 276.479675,146.980175 C277.116739,145.57496 276.568027,143.869967 277.177191,142.469436 C277.506589,141.876183 277.871522,141.303671 278.269966,140.755075 C279.199988,139.167183 279.074435,137.181146 278.800079,135.359052 C278.507122,133.396436 278.060712,131.396347 276.940035,129.766299 C275.819359,128.13625 273.889564,126.95587 271.936519,127.194756 C270.383382,127.400854 269.020901,128.473501 267.458464,128.567182 C266.356388,128.632759 265.291514,128.197142 264.240589,127.855207 C263.111079,127.488507 261.951881,127.222061 260.776258,127.058919 C259.99504,126.951186 259.078969,126.93245 258.553506,127.527324 C258.344671,127.785144 258.186821,128.080889 258.088495,128.398557 L257.079422,131.208985 C256.973526,131.402947 256.973526,131.638002 257.079422,131.831964 C257.172424,131.944381 257.330528,131.977169 257.451431,132.061482 C258.251249,132.581411 257.177074,133.86484 257.83739,134.497187 C258.497705,135.129533 260.827409,134.717337 261.752781,134.937487 Z" id="Path" fill="#472727" fill-rule="nonzero"></path>
            <path d="M310.922237,153.714641 C310.922237,153.714641 303.80176,160.397247 293.923152,161.780828 C293.923152,161.780828 290.986776,162.449089 288.875963,166.341001 C288.106901,167.803878 287.561377,169.374422 287.257672,171 L276.656698,152.980496 L276,151.86516 L293.688617,151.86516 C296.43416,148.558499 300.432353,146.553708 304.716445,146.335539 L307.474575,144.490764 C307.474575,144.490764 304.716445,123.05466 300.583942,121.901675 C300.583942,121.901675 298.566942,119.87807 296.273191,117.910936 C293.354757,115.453155 292.783412,111.16933 294.955106,108.02821 C295.011394,107.948207 295.067682,107.868204 295.128661,107.792907 C297.47401,104.71985 302.375788,105.788126 303.360834,109.543562 C304.044885,112.094554 304.575886,114.684395 304.95098,117.299149 L306.100201,121.219297 L310.237396,129.746677 L316.898185,145.879051 C316.898185,145.879051 318.272559,149.568602 310.922237,153.714641 Z" id="Path" fill="#DB8B8B" fill-rule="nonzero"></path>
            <path d="M258,155 L256.61221,167.108432 L253.492042,167.280744 L252.448839,167.336629 C252.448839,167.336629 248.285469,171.444182 244.126819,172.808709 C239.968169,174.173236 234.417009,177.829051 234.417009,177.829051 L217.541669,185.112738 L211.995229,187.622909 C211.995229,187.622909 198.122048,197.22117 195.346468,192.866791 C192.570888,188.512413 207.383423,184.18132 207.383423,184.18132 L217.093234,179.160978 C230.503818,167.755767 235.125065,168.915382 235.125065,168.915382 L245.509889,162.986908 C248.04787,159.32208 251.802329,156.645689 256.126011,155.419138 C256.739409,155.234269 257.365763,155.094178 258,155 Z" id="Path" fill="#DB8B8B" fill-rule="nonzero"></path>
            <path d="M289,166.310174 C288.244739,167.78273 287.709004,169.363666 287.410749,171 L277,152.861268 C277.24817,152.507386 277.465519,152.131693 277.64952,151.738552 C277.915989,151.182758 278.125932,150.60015 278.276008,150 L279.782342,150.350553 L283.859117,151.297992 L285.273321,151.624859 C285.273321,151.662757 285.245681,151.700654 285.236468,151.738552 C283.33858,157.470562 286.91785,163.472592 289,166.310174 Z" id="Path" fill="#000000" fill-rule="nonzero" opacity="0.1"></path>
            <path d="M258,155 L256.768586,166.831627 L254,167 C255.176963,164.724687 255.976963,158.699659 256.341361,155.427759 C256.883838,155.241176 257.438214,155.098204 258,155 Z" id="Path" fill="#000000" fill-rule="nonzero" opacity="0.1"></path>
            <path d="M287.27532,175.153746 C283.834368,181.528757 282.061712,188.678944 282.123953,195.932313 L282.123953,196.836548 L282.123953,196.954287 C282.123953,196.954287 284.648123,203.872627 282.123953,203.872627 C279.599783,203.872627 279.829253,207.334151 276.621357,208.026456 C273.413461,208.718761 262.169432,213.560186 258.732066,211.487981 C255.2947,209.415776 253,205.031178 253,205.031178 L253,167.430072 C253.046831,167.373557 253.093661,167.312333 253.135809,167.246399 C255.116743,164.420665 256.212579,152.646771 256.212579,152.646771 C256.867252,152.748004 257.527025,152.812468 258.188831,152.839863 C260.160399,152.934054 262.403585,152.839863 263.536886,152.783348 L264.239345,152.740962 C266.22028,154.299826 268.922406,154.525885 270.261761,154.525885 C270.731888,154.527653 271.201325,154.562273 271.666679,154.629495 C275.53957,155.175804 276.719701,150 276.719701,150 L278.251062,150.348507 L282.395571,151.290419 L283.83327,151.615378 C281.252904,158.966997 288.048025,166.827248 288.905025,167.778579 L288.994003,167.87748 C289.066903,170.412649 288.474099,172.922361 287.27532,175.153746 Z" id="Path" fill="#6C63FF" fill-rule="nonzero"></path>
            <path d="M259,153.213878 C259,156.298479 258.29991,166.521863 254,168 L254,167.919202 C254.045167,167.862167 254.090334,167.80038 254.130985,167.73384 C256.041554,164.882129 257.098464,153 257.098464,153 C257.728048,153.108356 258.362875,153.179759 259,153.213878 Z" id="Path" fill="#FFFFFF" fill-rule="nonzero" opacity="0.3"></path>
            <path d="M289,168 C280.708004,167.579429 281.688977,156.864 282.568151,152 L283.98871,152.315429 C281.439107,159.446857 288.14859,167.076571 289,168 Z" id="Path" fill="#FFFFFF" fill-rule="nonzero" opacity="0.3"></path>
            <g id="Group" opacity="0.1" transform="translate(258.000000, 153.000000)" fill="#000000" fill-rule="nonzero">
                <path d="M31.5482353,15.3 C31.5431131,15.2513021 31.5069576,15.2114969 31.4588235,15.2015625 C29.5764706,14.7328125 31.6658824,15.4125 29.5764706,14.7328125 C29.4964706,14.7046875 29.6894118,14.390625 29.6894118,14.390625 C29.7529678,16.9112946 29.1492054,19.4042112 27.9388235,21.61875 C24.4811029,27.9639035 22.6998091,35.0806025 22.7623529,42.3 L22.7623529,43.2 L22.7623529,43.3125 C22.7623529,43.3125 25.2988235,50.1984375 22.7623529,50.1984375 C20.2258824,50.1984375 20.4564706,53.64375 17.2329412,54.3328125 C14.2776471,54.965625 4.56,59.0578125 0.291764706,58.153125 C0.555294118,58.3453125 0.823529412,58.528125 1.10117647,58.6921875 C4.56,60.759375 15.8541176,55.9359375 19.0776471,55.246875 C22.3011765,54.5578125 22.0752941,51.1125 24.6070588,51.1125 C27.1388235,51.1125 24.6070588,44.2265625 24.6070588,44.2265625 L24.6070588,44.109375 L24.6070588,43.209375 C24.544515,35.9899775 26.3258088,28.8732785 29.7835294,22.528125 C30.9988198,20.3149302 31.6074701,17.8219366 31.5482353,15.3 L31.5482353,15.3 Z" id="Path"></path>
                <path d="M7.20941176,0.478125 C7.10117647,0.403125 6.98823529,0.3234375 6.88470588,0.24375 L6.64,0.24375 C6.82823529,0.3375 7.02117647,0.4078125 7.20941176,0.478125 Z" id="Path"></path>
            </g>
            <path d="M338,268.820662 L335.219474,275 C334.425718,273.711943 333.555791,272.471124 332.614211,271.283984 L332.614211,271.283984 C331.263445,269.503664 329.669359,267.91649 327.877368,266.567681 C325.93795,265.175428 324.107513,263.641059 322.401579,261.977583 C321.094211,260.729562 319.663684,259.49089 318.65,258.97205 C318.061072,258.680295 317.498497,258.339392 316.968421,257.953067 C315.121053,256.550797 311.492632,253.676142 310.635263,251.652199 C310.635263,251.652199 303.212632,244.785748 299.963158,243.411523 L296.723158,239.672136 L293,235.385863 L302.511579,226 L305.311053,229.865592 L309.474737,235.6149 C311.358118,237.924266 313.512668,240.004836 315.893158,241.812935 C318.264605,243.510236 320.454838,245.441297 322.43,247.576266 C325.544087,250.917972 328.2763,254.587491 330.577368,258.518649 L336.56,266.815415 L336.602632,266.880855 L337.55,268.184966 L338,268.820662 Z" id="Path" fill="#DB8B8B" fill-rule="nonzero"></path>
            <path d="M279,269.316419 L275.327065,278 L272.347491,274.799067 L271.120056,272.232721 L270.051907,269.997667 L264.772063,266.796734 L259.618711,263.446486 C258.72869,262.868813 257.757791,262.425405 256.737519,262.13065 C252.282212,260.833479 253.05053,258.341791 253.05053,258.341791 L253.458113,251.874599 L253.739205,247.371829 L265.919855,246 L265.310823,249.429571 L264.542505,253.769029 C269.133673,254.454943 272.113248,261.995334 272.113248,261.995334 C273.926291,264.706328 275.645636,265.830854 276.606034,266.278798 C276.856075,266.404542 277.120298,266.500095 277.393091,266.56343 L279,269.316419 Z" id="Path" fill="#DB8B8B" fill-rule="nonzero"></path>
            <polygon id="Path" fill="#000000" fill-rule="nonzero" opacity="0.1" points="336.053963 267.03052 335.946037 266.96948 336.011731 266.96948"></polygon>
            <path d="M338,268.635488 L335.418646,275 C334.681747,273.673344 333.874134,272.395342 333,271.172627 C333.395778,271.586657 335.60774,273.791609 336.315743,271.77923 C336.587051,270.958493 336.899757,270.154873 337.252419,269.372077 C337.47104,268.955024 337.582002,268.480759 337.573439,268 L338,268.635488 Z" id="Path" fill="#000000" fill-rule="nonzero" opacity="0.1"></path>
            <path d="M337.511205,268.172361 L336.562088,266.867627 L336.519378,266.802157 L330.525705,258.501432 C328.215335,254.570976 325.473304,250.90284 322.349064,247.56318 C320.370257,245.427191 318.175982,243.49521 315.800158,241.797099 C313.415275,239.988136 311.256749,237.906573 309.369892,235.596106 L305.21276,229.867437 L302.40812,226 L302,226.402176 L304.510414,229.867437 L308.681782,235.619488 C310.571258,237.923666 312.731344,239.998918 315.116794,241.801775 C317.492618,243.499886 319.686893,245.431868 321.6657,247.567856 C324.784685,250.90676 327.521913,254.573288 329.828104,258.501432 L335.831268,266.81151 L335.873978,266.87698 L336.823095,268.181714 L337.297654,268.817713 L334.801476,274.354648 C335.062484,274.7615 335.209597,275 335.209597,275 L338,268.817713 L337.511205,268.172361 Z" id="Path" fill="#000000" fill-rule="nonzero" opacity="0.1"></path>
            <path d="M279,269.106332 L275.271106,278 L272.246136,274.721625 L271,272.09319 L274.576694,274.482676 C278.091558,272.274791 276.736029,266.630824 276.574316,266 C276.828167,266.128785 277.096416,266.226651 277.373365,266.291517 L279,269.106332 Z" id="Path" fill="#000000" fill-rule="nonzero" opacity="0.1"></path>
            <path d="M276.86331,266.133759 C276.86331,266.133759 278.571541,272.235276 274.927006,274.525691 L270.137445,271.305968 C270.137445,271.305968 269.206529,273.60577 272.190114,276.595513 C274.439786,278.628618 275.620494,281.60332 275.383155,284.640128 C275.383155,284.640128 275.848612,290.154961 278.576195,288.779773 C278.576195,288.779773 282.909608,287.841078 282.681533,280.275197 C282.681533,280.275197 280.954685,273.962474 282.965463,271.291887 C283.021317,271.219921 283.078724,271.149519 283.137682,271.080681 C285.418425,268.550898 282.453459,264.645928 282.453459,264.645928 C282.453459,264.645928 277.091385,262.458769 276.86331,266.133759 Z" id="Path" fill="#535461" fill-rule="nonzero"></path>
            <path d="M282.888091,203.965225 C280.384364,203.965225 280.611975,207.387311 277.430058,208.071729 C274.248141,208.756146 263.095173,213.54241 259.685645,211.493815 C256.276116,209.445219 254,205.110577 254,205.110577 L254,204.644987 C259.685645,207.610795 266.741604,204.644987 266.741604,204.644987 C271.767639,205.613414 280.412235,199.006693 282.892736,197 L282.892736,197.116397 C282.892736,197.116397 285.387174,203.965225 282.888091,203.965225 Z" id="Path" fill="#000000" fill-rule="nonzero" opacity="0.1"></path>
            <path d="M254.253012,247.401112 L266,246 L265.412651,249.50278 C261.775602,251.285147 256.539157,251.833201 254,252 L254.253012,247.401112 Z" id="Path" fill="#000000" fill-rule="nonzero" opacity="0.1"></path>
            <path d="M305,229.948718 C304.432089,234.25641 299.787226,237.956239 296.629088,240 L293,235.61094 L302.271258,226 L305,229.948718 Z" id="Path" fill="#000000" fill-rule="nonzero" opacity="0.1"></path>
            <path d="M265.95519,205.190985 C265.95519,205.190985 258.850818,208.155563 253.117711,205.190985 L251.971089,220.693355 C251.971089,220.693355 252.200414,227.530035 251.283116,231.397483 C250.365819,235.264931 251.971089,251 251.971089,251 C251.971089,251 266.184515,250.771956 268.931726,245.531587 C268.931726,245.531587 274.889477,233.677928 273.747536,229.577782 L286.126367,232.314315 L293.464744,240.28191 C293.464744,240.28191 306.0729,234.357408 304.926278,227.059984 L287.960961,207.238731 L282.920507,197 C282.920507,197 271.917622,206.331207 265.95519,205.190985 Z" id="Path" fill="#6C63FF" fill-rule="nonzero"></path>
            <path d="M293.472093,240.27818 L286.13833,232.301965 L273.754706,229.574974 C273.782787,229.677353 273.806188,229.784385 273.829588,229.89607 C273.867631,230.114452 273.88953,230.335312 273.89511,230.556877 C274.086995,235.298862 268.943533,245.532058 268.943533,245.532058 C266.191616,250.776629 251.982742,251 251.982742,251 C251.982742,251 250.354057,235.280248 251.290083,231.403826 C252.226109,227.527404 251.978062,220.70062 251.978062,220.70062 L253.082573,205.776629 L253.124694,205.20424 C254.725111,206.005433 256.481946,206.450089 258.272837,206.507239 C260.809374,206.580091 263.336595,206.171018 265.718923,205.301965 L265.96229,205.20424 C266.096454,205.229059 266.233738,205.249224 266.374141,205.264736 C271.297638,205.80455 279.193017,199.968976 281.940253,197.79576 C282.562711,197.302482 282.923081,197 282.923081,197 L287.968261,207.237849 L304.929051,227.066701 C304.96554,227.294666 304.987425,227.524705 304.994573,227.755429 C305.289421,234.735781 293.472093,240.27818 293.472093,240.27818 Z" id="Path" fill="#000000" fill-rule="nonzero" opacity="0.1"></path>
            <path d="M279,150.359222 C273.798156,160.058221 266.12651,154.689572 264,152.908223 L264.715194,152.863936 C266.732041,154.492738 269.483153,154.728939 270.84679,154.728939 C271.32544,154.730786 271.803387,154.76696 272.277177,154.837197 C276.22028,155.408016 277.421805,150 277.421805,150 L279,150.359222 Z" id="Path" fill="#FFFFFF" fill-rule="nonzero" opacity="0.3"></path>
            <path d="M336.10917,267.007142 C337.733858,266.917396 339.28565,267.67841 340.188611,269.00774 C340.188611,269.00774 346.243512,274.018582 349.504209,274.486012 C349.504209,274.486012 359.29582,278.608738 356.496857,284.330073 C353.697893,290.051408 346.938492,284.797502 346.938492,284.797502 C346.938492,284.797502 339.712597,278.389046 337.380128,278.847127 C337.380128,278.847127 330.968217,275.070298 332.143972,271.405652 C332.143972,271.405652 334.952456,274.210228 335.799761,272.055379 C336.091694,271.258536 336.428599,270.478279 336.808911,269.718232 C337.261124,268.839465 337.494371,267.694264 336.10917,267.007142 Z" id="Path" fill="#535461" fill-rule="nonzero"></path>
            <path d="M265,205.573482 C262.688013,206.357416 258.036946,207.404416 254.07225,205 L254,206.152226 C258.809113,208.18835 264.128489,205.96808 265,205.573482 Z" id="Path" fill="#000000" fill-rule="nonzero" opacity="0.1"></path>
            <path d="M270,204 C268.81807,204.44939 267.564036,204.574108 266.334569,204.36454 C266.334569,204.36454 265.834106,204.60938 265,204.908629 C266.450417,205.196997 268.192771,204.778048 270,204 Z" id="Path" fill="#000000" fill-rule="nonzero" opacity="0.1"></path>
            <path d="M305,227.883049 C304.780597,234.667608 293.502334,240 293.502334,240 L293.343617,239.827234 C296.466613,238.113585 304.486503,233.103377 303.562208,227.191986 L286.640146,207.291237 L282,197.798458 C282.620865,197.303507 282.980313,197 282.980313,197 L288.012584,207.272559 L304.929978,227.168639 C304.968938,227.404985 304.992329,227.643635 305,227.883049 L305,227.883049 Z" id="Path" fill="#000000" fill-rule="nonzero" opacity="0.1"></path>
            <path d="M272.496808,230 C273.631792,234.229202 267.729874,246.437305 267.729874,246.437305 C266.923803,248.034045 265.130991,249.180053 263,250 C265.705432,249.165668 268.119011,247.894989 269.091855,245.967394 C269.091855,245.967394 274.326681,235.130664 273.983869,230.340446 L272.496808,230 Z" id="Path" fill="#000000" fill-rule="nonzero" opacity="0.1"></path>
            <path d="M269,170 C265.685348,170 263,173.803132 263,178.5 C263,183.196868 265.685348,187 269,187 C272.314652,187 275,183.196868 275,178.5 C275,173.803132 272.314652,170 269,170 Z M269,183.505872 C267.04964,183.505872 265.464371,181.266779 265.464371,178.5 C265.464371,175.733221 267.044836,173.494128 269,173.494128 C270.955164,173.494128 272.535629,175.733221 272.535629,178.5 C272.535629,181.266779 270.95036,183.505872 269,183.505872 L269,183.505872 Z" id="Shape" fill="#FFFFFF" fill-rule="nonzero" opacity="0.3"></path>
            <path d="M306.998726,111.011951 C306.998726,111.28024 306.998726,111.545446 306.998726,111.807568 C306.998726,111.950964 306.998726,112.09436 306.965697,112.23313 C306.767764,114.609268 305.955859,116.89685 304.606521,118.880229 C304.516872,119.014373 304.422505,119.143892 304.328138,119.273411 C301.717518,122.862227 297.500331,124.994866 293.004092,125 C292.687962,125 292.371832,125 292.060421,124.96762 C291.74901,124.935241 291.480064,124.921363 291.192244,124.884358 L291.192244,124.884358 C287.144269,124.346278 283.538402,122.100545 281.321451,118.736833 C281.245957,118.630442 281.175182,118.5148 281.109125,118.408409 L281.109125,118.385281 C279.725458,116.165427 278.995478,113.61345 279,111.011951 C278.999174,110.318513 279.049635,109.625928 279.151008,108.939647 L279.226502,108.47708 C280.002163,104.187331 282.772302,100.496811 286.719246,98.4948675 L287.228828,98.2497066 C290.573755,96.7364265 294.395751,96.5916097 297.84984,97.8472726 C298.295175,98.0095904 298.731445,98.194876 299.156824,98.4023539 L299.156824,98.4023539 C302.291193,99.9328373 304.739142,102.543538 306.031463,105.734053 C306.078647,105.840443 306.116394,105.942208 306.154141,106.048599 C306.735589,107.640369 307.021631,109.321342 306.998726,111.011951 L306.998726,111.011951 Z" id="Path" fill="#F88787" fill-rule="nonzero"></path>
            <path d="M306,105.614731 C305.12193,105.870455 304.210826,106.00022 303.294947,106 L303.137998,106 L302.77794,106 C302.556365,106 302.339407,105.972804 302.131681,105.945609 C300.336304,105.73482 298.616208,105.113879 297.109329,104.132578 L297.109329,104.132578 C293.079446,100.098583 289.132653,98.7206799 287,98.2402266 L287.498542,98 C289.594266,98.5212464 292.996356,99.8130311 296.536929,103.076487 C297.449784,103.924507 298.52657,104.58416 299.703596,105.01643 C300.512546,105.310072 301.353834,105.509361 302.210155,105.610198 C302.394801,105.610198 302.57483,105.646459 302.754859,105.660056 L303.119534,105.660056 C304.055278,105.685174 304.989399,105.568993 305.889213,105.31558 C305.921526,105.428895 305.963071,105.528612 306,105.614731 Z" id="Path" fill="#FFFFFF" fill-rule="nonzero" opacity="0.5"></path>
            <path d="M307,111.568027 C307,111.713583 307,111.859139 306.966858,112 C305.756004,111.231953 304.461595,110.601916 303.108218,110.121857 L302.753128,109.995082 C299.52659,108.920006 296.193529,108.189651 292.810619,107.816436 C284.856611,106.811629 280.889077,107.750701 279,108.642819 L279.075752,108.173283 C281.121069,107.281165 285.150152,106.468868 292.857964,107.440807 C296.23855,107.815182 299.570668,108.537463 302.800473,109.595977 L303.155563,109.722751 C304.500744,110.197718 305.789811,110.816452 307,111.568027 L307,111.568027 Z" id="Path" fill="#FFFFFF" fill-rule="nonzero" opacity="0.5"></path>
            <path d="M303.910506,109.556997 C303.910506,109.686007 303.882338,109.815017 303.868254,109.948805 C303.786879,110.60182 303.671075,111.285097 303.520844,111.998635 C303.405041,112.536974 303.276719,113.054608 303.135877,113.551536 C303.098319,113.680546 303.060762,113.809556 303.023204,113.933788 C301.23921,119.748805 297.610191,122.696928 294.741717,124.168601 C294.13269,124.483786 293.505596,124.76142 292.863829,125 L292,124.913993 L292,124.913993 C292.901134,124.628609 293.777375,124.267409 294.619654,123.83413 C297.436486,122.400683 300.999779,119.471672 302.736826,113.713993 C302.774384,113.599317 302.807247,113.479863 302.84011,113.36041 C302.971562,112.898521 303.090495,112.420705 303.196909,111.926962 C303.350269,111.210239 303.467638,110.509443 303.549013,109.824573 C303.549013,109.695563 303.577181,109.561775 303.591265,109.432765 C303.711044,108.247723 303.711044,107.053301 303.591265,105.868259 C303.591265,105.744027 303.567792,105.619795 303.549013,105.500341 C303.262841,102.926551 302.165965,100.516131 300.422329,98.6293515 C299.852884,98.0221694 299.223613,97.4761818 298.544441,97 C298.987545,97.1676683 299.42163,97.3590617 299.844878,97.5733788 L299.844878,97.5733788 C300.120302,97.8186576 300.392596,98.0862344 300.661759,98.3761092 C302.456157,100.340434 303.577742,102.843058 303.858864,105.509898 C303.858864,105.629352 303.887033,105.753584 303.901117,105.873038 C304.029745,107.097371 304.032891,108.332001 303.910506,109.556997 Z" id="Path" fill="#FFFFFF" fill-rule="nonzero" opacity="0.5"></path>
            <path d="M305,118.595807 C304.912355,118.733708 304.820096,118.866854 304.727838,119 C304.340555,117.269052 303.719437,115.602728 302.882671,114.04982 C302.83868,113.972588 302.784325,113.902149 302.721219,113.84059 C302.629009,113.753926 302.524858,113.681816 302.412154,113.626606 C300.636181,112.718359 295.331328,114.240029 291.387284,116.436938 C288.351986,118.129795 284.380265,118.429374 282.207581,118.448395 L282,118.110775 L282,118.086998 C284.075812,118.086998 288.15363,117.830217 291.225832,116.118339 C294.916165,114.073596 300.405535,112.314166 302.518251,113.265209 C302.630211,113.315665 302.736864,113.377807 302.836542,113.450663 C302.981483,113.557314 303.103895,113.693209 303.19635,113.850101 C303.995517,115.344268 304.601867,116.939674 305,118.595807 L305,118.595807 Z" id="Path" fill="#FFFFFF" fill-rule="nonzero" opacity="0.5"></path>
            <rect id="Rectangle" fill="#000000" fill-rule="nonzero" opacity="0.1" x="121" y="350" width="21" height="2"></rect>
            <polygon id="Path" fill="#FFFFFF" fill-rule="nonzero" opacity="0.3" points="85.4660944 45.0925702 37 93.5306554 37 105 92 43"></polygon>
            <polygon id="Path" fill="#FFFFFF" fill-rule="nonzero" opacity="0.3" points="101.827228 40.4204088 37 122.78965 37 135 118 38"></polygon>
        </g>
    </g>
</svg>